<?xml version="1.0" encoding="UTF-8" standalone="no"?>
<!-- Created with Inkscape (http://www.inkscape.org/) -->
<svg xmlns:dc="http://purl.org/dc/elements/1.1/" xmlns:cc="http://creativecommons.org/ns#" xmlns:rdf="http://www.w3.org/1999/02/22-rdf-syntax-ns#" xmlns:svg="http://www.w3.org/2000/svg" xmlns="http://www.w3.org/2000/svg" version="1.1" width="150" height="150" id="svg2">
  <defs/>
  <metadata id="metadata7"/>
  <path d="m 49.716388,1.651827 84.229472,0 c 5.72493,0 10.3338,4.6088736 10.3338,10.333797 l 0,126.409406 c 0,5.72492 -4.60887,10.33379 -10.3338,10.33379 l -113.44257,0 c -5.724924,0 -10.28061,-4.60912 -10.333797,-10.33379 L 9.2706284,41.648155 C 9.2427352,38.645954 27.616626,22.916903 29.647987,21.032246 31.490078,19.323189 46.993795,1.651827 49.716388,1.651827 z" id="rect4674" style="fill:#ffffff;fill-opacity:1;fill-rule:evenodd;stroke:#ff9900;stroke-width:2.74099994;stroke-linejoin:round;stroke-miterlimit:4;stroke-dasharray:none"/>
  <path d="m 125.21187,36.546612 a 13.347458,14.300847 0 1 1 -26.694917,0 13.347458,14.300847 0 1 1 26.694917,0 z" transform="matrix(0.97998045,0,0,0.91464842,3.8284584,3.7549045)" id="path5184" style="fill:#ffffff;fill-opacity:1;fill-rule:evenodd;stroke:#109618;stroke-width:1.89999998;stroke-linecap:round;stroke-linejoin:round;stroke-miterlimit:4;stroke-opacity:1;stroke-dasharray:none"/>
  <rect width="34.893852" height="24.72436" ry="4.1018491" x="94.735283" y="56.599689" id="rect5186" style="fill:#ffffff;fill-opacity:1;fill-rule:evenodd;stroke:#109618;stroke-width:1.59300005;stroke-linecap:round;stroke-linejoin:round;stroke-miterlimit:4;stroke-opacity:1;stroke-dasharray:none"/>
  <rect width="116.47447" height="50.847458" ry="10.333797" x="19.067795" y="71.822029" id="rect5188" style="fill:#ffffff;fill-opacity:1;fill-rule:evenodd;stroke:#ffffff;stroke-width:1.6442858;stroke-linecap:round;stroke-linejoin:miter;stroke-miterlimit:4;stroke-opacity:1;stroke-dasharray:none"/>
  <rect width="105.89491" height="6.9915257" ry="3.4957628" x="23.009119" y="94.331078" id="rect5190" style="fill:#109618;fill-opacity:1;fill-rule:evenodd;stroke:#ffffff;stroke-width:1.92580044;stroke-linecap:round;stroke-linejoin:round;stroke-miterlimit:4;stroke-opacity:1;stroke-dasharray:none"/>
  <rect width="105.89491" height="6.9915257" ry="3.4957628" x="23.45603" y="109.20135" id="rect5190-6" style="fill:#109618;fill-opacity:1;fill-rule:evenodd;stroke:#ffffff;stroke-width:1.92580044;stroke-linecap:round;stroke-linejoin:round;stroke-miterlimit:4;stroke-opacity:1;stroke-dasharray:none"/>
  <rect width="105.89491" height="6.9915257" ry="3.4957628" x="23.006599" y="123.58319" id="rect5190-1" style="fill:#109618;fill-opacity:1;fill-rule:evenodd;stroke:#ffffff;stroke-width:1.92580044;stroke-linecap:round;stroke-linejoin:round;stroke-miterlimit:4;stroke-opacity:1;stroke-dasharray:none"/>
  <path d="m 9.4113276,41.713572 41.8507024,0 -0.721565,-39.6035411" id="path5220" style="fill:none;stroke:#ff9900;stroke-width:2.98200011;stroke-linecap:butt;stroke-linejoin:miter;stroke-miterlimit:4;stroke-opacity:1;stroke-dasharray:none"/>
  <rect width="54.085114" height="5.3395658" ry="2.6697829" x="23.45603" y="53.471756" id="rect5190-6-8" style="fill:#109618;fill-opacity:1;fill-rule:evenodd;stroke:#ffffff;stroke-width:1.20276177;stroke-linecap:round;stroke-linejoin:round;stroke-miterlimit:4;stroke-opacity:1;stroke-dasharray:none"/>
  <rect width="56.848938" height="5.3985996" ry="2.6992998" x="22.557165" y="66.055862" id="rect5190-6-9" style="fill:#109618;fill-opacity:1;fill-rule:evenodd;stroke:#ffffff;stroke-width:1.2399081;stroke-linecap:round;stroke-linejoin:round;stroke-miterlimit:4;stroke-opacity:1;stroke-dasharray:none"/>
  <rect width="56.848938" height="5.3985996" ry="2.6992998" x="22.81081" y="77.638695" id="rect5190-6-9-2" style="fill:#109618;fill-opacity:1;fill-rule:evenodd;stroke:#ffffff;stroke-width:1.2399081;stroke-linecap:round;stroke-linejoin:round;stroke-miterlimit:4;stroke-opacity:1;stroke-dasharray:none"/>
</svg>
