<?xml version="1.0" encoding="UTF-8" standalone="no"?>
<!-- Created with Inkscape (http://www.inkscape.org/) -->

<svg
   xmlns:dc="http://purl.org/dc/elements/1.1/"
   xmlns:cc="http://creativecommons.org/ns#"
   xmlns:rdf="http://www.w3.org/1999/02/22-rdf-syntax-ns#"
   xmlns:svg="http://www.w3.org/2000/svg"
   xmlns="http://www.w3.org/2000/svg"
   version="1.1"
   width="150"
   height="150"
   id="svg2">
  <defs
     id="defs4" />
  <metadata
     id="metadata7">
    <rdf:RDF>
      <cc:Work
         rdf:about="">
        <dc:format>image/svg+xml</dc:format>
        <dc:type
           rdf:resource="http://purl.org/dc/dcmitype/StillImage" />
        <dc:title></dc:title>
      </cc:Work>
    </rdf:RDF>
  </metadata>
  <g
     transform="translate(0,-902.36218)"
     id="layer1">
    <path
       d="m 13.260221,918.40851 101.023159,0 c 5.29442,0 9.55671,4.26229 9.55671,9.5567 l 0,110.96399 c 0,5.2944 -4.26229,9.5567 -9.55671,9.5567 l -101.023159,0 c -5.2944151,0 -9.5567057,-4.2623 -9.5567057,-9.5567 l 0,-110.96399 c 0,-2.69835 -0.4999944,-6.73575 1.2866715,-8.47028 1.7189309,-1.66877 5.6739762,-1.08642 8.2700342,-1.08642 z"
       id="rect4535-1"
       style="fill:#ffffff;fill-opacity:1;fill-rule:evenodd;stroke:#ff9900;stroke-width:3.08512187;stroke-linecap:round;stroke-linejoin:round;stroke-miterlimit:4;stroke-opacity:1" />
    <path
       d="m 36.8578,905.93853 100.27132,0 c 2.98101,0 7.25199,-0.56523 9.05694,1.65422 1.50223,1.84723 0.80237,6.22703 0.80237,8.87722 l 0,122.28163 c 0,5.8344 -4.39755,10.5928 -9.85931,10.5316 l -73.419476,-0.8255 c -0.244616,0 -29.052467,-0.5584 -34.393006,-0.4204 -4.72904,0.09 7.333273,-0.1211 -15.317673,0.5096 3.527843,-1.1306 2.182102,1.2405 9.202242,-2.7788 1.116732,-0.8624 2.249217,-2.7813 2.155077,-8.2019 l 1.642209,-121.09623 c 0.03599,-2.65382 0.05633,-6.67966 1.555385,-8.52799 1.796265,-2.21478 5.326576,-2.00345 8.303922,-2.00345 z"
       id="rect4535"
       style="fill:#ffffff;fill-opacity:1;fill-rule:evenodd;stroke:#ff9900;stroke-width:3.23665762;stroke-linecap:round;stroke-linejoin:round;stroke-miterlimit:4;stroke-opacity:1" />
    <rect
       width="83.743637"
       height="42.543575"
       x="45.039001"
       y="942.88721"
       id="rect4556"
       style="fill:#109618;fill-opacity:1;fill-rule:evenodd;stroke:none" />
    <rect
       width="38.765896"
       height="4.0556426"
       x="43.569263"
       y="998.34503"
       id="rect4556-4"
       style="fill:#109618;fill-opacity:1;fill-rule:evenodd;stroke:#ff9900;stroke-width:0.78314114;stroke-linecap:round;stroke-linejoin:round;stroke-miterlimit:4;stroke-opacity:1;stroke-dasharray:none" />
    <rect
       width="38.765896"
       height="4.0556426"
       x="43.296062"
       y="1008.5587"
       id="rect4556-4-2"
       style="fill:#109618;fill-opacity:1;fill-rule:evenodd;stroke:#ff9900;stroke-width:0.78314114;stroke-linecap:round;stroke-linejoin:round;stroke-miterlimit:4;stroke-opacity:1;stroke-dasharray:none" />
    <rect
       width="38.765896"
       height="4.0556426"
       x="43.569263"
       y="1018.4807"
       id="rect4556-4-3"
       style="fill:#109618;fill-opacity:1;fill-rule:evenodd;stroke:#ff9900;stroke-width:0.78314114;stroke-linecap:round;stroke-linejoin:round;stroke-miterlimit:4;stroke-opacity:1;stroke-dasharray:none" />
    <rect
       width="38.765896"
       height="4.0556426"
       x="43.569263"
       y="1028.1107"
       id="rect4556-4-22"
       style="fill:#109618;fill-opacity:1;fill-rule:evenodd;stroke:#ff9900;stroke-width:0.78314114;stroke-linecap:round;stroke-linejoin:round;stroke-miterlimit:4;stroke-opacity:1;stroke-dasharray:none" />
    <rect
       width="38.765896"
       height="4.0556426"
       x="93.017738"
       y="998.05322"
       id="rect4556-4-1"
       style="fill:#109618;fill-opacity:1;fill-rule:evenodd;stroke:#ff9900;stroke-width:0.78314114;stroke-linecap:round;stroke-linejoin:round;stroke-miterlimit:4;stroke-opacity:1;stroke-dasharray:none" />
    <rect
       width="38.765896"
       height="4.0556426"
       x="92.744553"
       y="1008.559"
       id="rect4556-4-6"
       style="fill:#109618;fill-opacity:1;fill-rule:evenodd;stroke:#ff9900;stroke-width:0.78314114;stroke-linecap:round;stroke-linejoin:round;stroke-miterlimit:4;stroke-opacity:1;stroke-dasharray:none" />
    <rect
       width="38.765896"
       height="4.0556426"
       x="93.017738"
       y="1017.6049"
       id="rect4556-4-8"
       style="fill:#109618;fill-opacity:1;fill-rule:evenodd;stroke:#ff9900;stroke-width:0.78314114;stroke-linecap:round;stroke-linejoin:round;stroke-miterlimit:4;stroke-opacity:1;stroke-dasharray:none" />
    <rect
       width="38.765896"
       height="4.0556426"
       x="92.744537"
       y="1028.1108"
       id="rect4556-4-5"
       style="fill:#109618;fill-opacity:1;fill-rule:evenodd;stroke:#ff9900;stroke-width:0.78314114;stroke-linecap:round;stroke-linejoin:round;stroke-miterlimit:4;stroke-opacity:1;stroke-dasharray:none" />
    <rect
       width="82.220177"
       height="5.9699225"
       x="45.513123"
       y="924.85254"
       id="rect4556-4-7"
       style="fill:#109618;fill-opacity:1;fill-rule:evenodd;stroke:#ff9900;stroke-width:1.38375378;stroke-linecap:round;stroke-linejoin:round;stroke-miterlimit:4;stroke-opacity:1;stroke-dasharray:none" />
  </g>
</svg>
