<?xml version="1.0" encoding="UTF-8" standalone="no"?>
<!-- Created with Inkscape (http://www.inkscape.org/) -->

<svg
   xmlns:dc="http://purl.org/dc/elements/1.1/"
   xmlns:cc="http://creativecommons.org/ns#"
   xmlns:rdf="http://www.w3.org/1999/02/22-rdf-syntax-ns#"
   xmlns:svg="http://www.w3.org/2000/svg"
   xmlns="http://www.w3.org/2000/svg"
   version="1.1"
   width="150"
   height="150"
   id="svg2">
  <defs
     id="defs4" />
  <metadata
     id="metadata7">
    <rdf:RDF>
      <cc:Work
         rdf:about="">
        <dc:format>image/svg+xml</dc:format>
        <dc:type
           rdf:resource="http://purl.org/dc/dcmitype/StillImage" />
        <dc:title></dc:title>
      </cc:Work>
    </rdf:RDF>
  </metadata>
  <g
     transform="translate(0,-902.36218)"
     id="layer1">
    <path
       d="m 29.167397,903.86976 58.676557,0 c 15.319306,0 26.303286,13.32987 26.303286,29.88763 l 0,29.15864 c 0,16.55776 -12.33287,29.88763 -27.652173,29.88763 l -46.536578,0 -29.001057,27.70064 c -2.4108388,2.3028 11.907034,-28.28864 9.039734,-29.3709 C 9.2118202,987.06227 1.5152262,975.99636 1.5152262,962.91603 l 0,-29.15864 c 0,-16.55776 12.3328678,-29.88763 27.6521708,-29.88763 z"
       id="rect4512"
       style="fill:#109618;fill-opacity:1;fill-rule:evenodd;stroke:#109618" />
    <path
       d="m 120.69357,944.73807 -56.308433,0 c -14.701048,0 -25.241727,12.00363 -25.241727,26.91399 l 0,26.25747 c 0,14.91037 11.835123,26.91397 26.536171,26.91397 l 44.658409,0 27.83061,24.9447 c 2.31354,2.0737 -11.42649,-25.4742 -8.67489,-26.4488 10.35005,-3.6661 17.73602,-13.6309 17.73602,-25.40987 l 0,-26.25747 c 0,-14.91036 -11.83513,-26.91399 -26.53616,-26.91399 z"
       id="rect4512-6"
       style="fill:#ffffff;fill-opacity:1;fill-rule:evenodd;stroke:#ff9900;stroke-width:3.20000005;stroke-miterlimit:4;stroke-dasharray:none" />
  </g>
</svg>
