<?xml version="1.0" encoding="UTF-8" standalone="no"?>
<!-- Generator: Adobe Illustrator 17.1.0, SVG Export Plug-In . SVG Version: 6.00 Build 0)  -->

<svg
   xmlns:dc="http://purl.org/dc/elements/1.1/"
   xmlns:cc="http://creativecommons.org/ns#"
   xmlns:rdf="http://www.w3.org/1999/02/22-rdf-syntax-ns#"
   xmlns:svg="http://www.w3.org/2000/svg"
   xmlns="http://www.w3.org/2000/svg"
   xmlns:sodipodi="http://sodipodi.sourceforge.net/DTD/sodipodi-0.dtd"
   xmlns:inkscape="http://www.inkscape.org/namespaces/inkscape"
   version="1.0"
   x="0px"
   y="0px"
   width="64"
   height="72"
   viewBox="0 0 64 72"
   enable-background="new 0 0 64 144"
   xml:space="preserve"
   id="svg3045"
   inkscape:version="0.48.5 r10040"
   sodipodi:docname="favicon.svg"><metadata
   id="metadata3103"><rdf:RDF><cc:Work
       rdf:about=""><dc:format>image/svg+xml</dc:format><dc:type
         rdf:resource="http://purl.org/dc/dcmitype/StillImage" /><dc:title></dc:title></cc:Work></rdf:RDF></metadata><defs
   id="defs3101" /><sodipodi:namedview
   pagecolor="#ffffff"
   bordercolor="#666666"
   borderopacity="1"
   objecttolerance="10"
   gridtolerance="10"
   guidetolerance="10"
   inkscape:pageopacity="0"
   inkscape:pageshadow="2"
   inkscape:window-width="1366"
   inkscape:window-height="705"
   id="namedview3099"
   showgrid="false"
   inkscape:showpageshadow="false"
   inkscape:zoom="3.5972222"
   inkscape:cx="32"
   inkscape:cy="72"
   inkscape:window-x="-8"
   inkscape:window-y="-8"
   inkscape:window-maximized="1"
   inkscape:current-layer="g3048" />
<g
   id="hover_state"
   transform="translate(0,-72)">
	<g
   id="g3048">
		<path
   d="M 32,143.5 C 2.771,143.5 0.5,130.86 0.5,126.986 V 72.5 h 27.709 l 3.79,8.554 L 35.79,72.5 H 63.5 v 54.486 C 63.5,130.86 61.229,143.5 32,143.5 z"
   id="path3050"
   inkscape:connector-curvature="0" />
		<path
   d="m 63,73 v 53.986 C 63,130.586 60.987,143 32,143 3.013,143 1,130.586 1,126.986 V 73 H 27.884 L 31.999,82.288 36.115,73 H 63 m 1,-1 H 63 36.115 35.464 L 35.2,72.595 31.999,79.82 28.798,72.595 28.534,72 H 27.883 1 0 v 1 53.986 C 0,130.978 2.308,144 32,144 44.615,144 53.706,141.679 59.023,137.101 63.354,133.372 64,129.163 64,126.986 V 73 72 l 0,0 z"
   id="path3052"
   inkscape:connector-curvature="0"
   style="fill:#ffffff" />
	</g>
	<path
   d="m 41.119,122.228 v -5.162 c 0,-1.045 -0.712,-1.858 -2.013,-2.554 V 111 l 0,0 h 15.869 v 3.482 c -1.302,0.696 -2.013,1.509 -2.013,2.555 v 4.609 C 52.903,125.013 54.502,134 32,134 9.497,134 11.067,125.013 11.007,121.647 v -4.609 c 0,-1.046 -0.71,-1.859 -2.013,-2.555 V 111 h 15.871 v -0.117 3.628 c -1.303,0.696 -2.014,1.509 -2.014,2.554 v 5.162 c 0.059,0.812 -0.181,3.772 9.134,3.772 9.315,0 9.074,-2.959 9.134,-3.771 z"
   id="path3054"
   inkscape:connector-curvature="0"
   style="fill:#ffffff" />
	<path
   d="M 31.985,94.862 39.654,81.06 h 15.307 v 3.6 c -1.303,0.697 -2.014,1.524 -2.014,2.569 v 10.959 c 0,1.045 0.71,1.858 2.014,2.555 V 105 H 40 v -4.286 c 1.303,-0.697 3,-1.509 3,-2.555 V 89.812 L 33.776,105 H 30.193 L 21,89.812 v 8.347 c 0,1.046 1.697,1.858 3,2.555 V 105 H 9.009 v -4.257 c 1.302,-0.697 2.013,-1.509 2.013,-2.555 V 87.229 c 0,-1.045 -0.711,-1.872 -2.013,-2.569 v -3.6 h 15.307 l 7.669,13.802"
   id="path3056"
   inkscape:connector-curvature="0"
   style="fill:#ffffff" />
</g>
<g
   id="default"
   transform="translate(67.830116,0.555985)">
	<g
   id="g3059">
		<path
   d="M 32,71.5 C 2.771,71.5 0.5,58.86 0.5,54.986 V 0.5 H 28.209 L 31.999,9.054 35.79,0.5 H 63.5 V 54.986 C 63.5,58.86 61.229,71.5 32,71.5 z"
   id="path3061"
   inkscape:connector-curvature="0" />
		<path
   d="M 63,1 V 54.986 C 63,58.586 60.987,71 32,71 3.013,71 1,58.586 1,54.986 V 1 H 27.884 L 31.999,10.288 36.115,1 H 63 M 64,0 H 63 36.115 35.464 L 35.2,0.595 31.999,7.82 28.798,0.595 28.534,0 H 27.883 1 0 V 1 54.986 C 0,58.978 2.308,72 32,72 44.615,72 53.706,69.679 59.023,65.101 63.353,61.372 64,57.163 64,54.986 V 1 0 l 0,0 z"
   id="path3063"
   inkscape:connector-curvature="0"
   style="fill:#cccccc" />
	</g>
	<path
   d="m 41.119,50.228 v -5.162 c 0,-1.045 -0.712,-1.858 -2.013,-2.554 V 39 l 0,0 h 15.869 v 3.482 c -1.302,0.696 -2.013,1.509 -2.013,2.555 v 4.609 C 52.903,53.013 54.502,62 32,62 9.497,62 11.067,53.013 11.007,49.647 v -4.609 c 0,-1.046 -0.71,-1.859 -2.013,-2.555 V 39 h 15.871 v -0.117 3.628 c -1.303,0.696 -2.014,1.509 -2.014,2.554 v 5.162 C 22.909,51.04 22.669,54 31.985,54 c 9.316,0 9.074,-2.96 9.134,-3.772 z"
   id="path3065"
   inkscape:connector-curvature="0"
   style="fill:#f1b82d" />
	<path
   d="M 31.985,22.862 39.653,9.06 H 54.96 v 3.6 c -1.303,0.697 -2.014,1.524 -2.014,2.569 v 10.959 c 0,1.045 0.71,1.858 2.014,2.555 V 33 H 40 v -4.286 c 1.303,-0.697 3,-1.509 3,-2.555 V 17.812 L 33.776,33 H 30.193 L 21,17.812 v 8.347 c 0,1.046 1.697,1.858 3,2.555 V 33 H 9.009 v -4.257 c 1.302,-0.697 2.013,-1.509 2.013,-2.555 V 15.229 c 0,-1.045 -0.711,-1.872 -2.013,-2.569 v -3.6 h 15.307 l 7.669,13.802"
   id="path3067"
   inkscape:connector-curvature="0"
   style="fill:#f1b82d" />
	<g
   id="g3069">
	</g>
	<g
   id="g3071">
	</g>
	<g
   id="g3073">
	</g>
	<g
   id="g3075">
	</g>
	<g
   id="g3077">
	</g>
	<g
   id="g3079">
	</g>
	<g
   id="g3081">
	</g>
	<g
   id="g3083">
	</g>
	<g
   id="g3085">
	</g>
	<g
   id="g3087">
	</g>
	<g
   id="g3089">
	</g>
	<g
   id="g3091">
	</g>
	<g
   id="g3093">
	</g>
	<g
   id="g3095">
	</g>
	<g
   id="g3097">
	</g>
</g>
</svg>